<?xml version="1.0" standalone="no"?>
<!DOCTYPE svg PUBLIC "-//W3C//DTD SVG 20010904//EN"
 "http://www.w3.org/TR/2001/REC-SVG-20010904/DTD/svg10.dtd">
<svg version="1.0" xmlns="http://www.w3.org/2000/svg"
 width="16.000000pt" height="16.000000pt" viewBox="0 0 16.000000 16.000000"
 preserveAspectRatio="xMidYMid meet">
<metadata>
Created by potrace 1.11, written by Peter Selinger 2001-2013
</metadata>
<g transform="translate(0.000000,16.000000) scale(0.004178,-0.004178)"
fill="#000000" stroke="none">
<path d="M1645 3820 c-16 -3 -41 -12 -54 -19 -13 -7 -261 -251 -552 -542 -556
-557 -554 -554 -538 -627 13 -59 86 -116 135 -107 10 2 28 4 39 4 11 1 210
191 506 487 l487 487 317 -319 c174 -175 472 -475 663 -667 l346 -347 -482
-483 c-265 -266 -482 -489 -483 -497 0 -8 -2 -26 -4 -40 -4 -36 30 -103 62
-122 39 -23 84 -28 119 -13 16 6 187 171 379 365 193 193 432 434 532 534 100
101 187 194 192 208 5 13 6 43 1 67 -7 38 -23 59 -123 160 -64 64 -414 416
-779 783 -460 464 -674 672 -698 681 -21 8 -47 11 -65 7z"/>
<path d="M2605 3315 c-56 -29 -86 -98 -71 -161 5 -17 176 -196 481 -501 261
-262 475 -480 475 -485 0 -13 -1304 -1318 -1316 -1318 -5 0 -218 210 -474 466
-256 256 -478 472 -493 480 -34 18 -92 16 -127 -4 -59 -33 -86 -113 -56 -170
20 -38 1051 -1079 1088 -1098 35 -18 82 -18 116 0 15 8 379 367 810 798 l782
784 0 47 c0 27 -5 58 -11 70 -7 12 -123 135 -260 272 -136 138 -371 374 -521
526 -150 152 -284 282 -298 291 -34 20 -89 21 -125 3z"/>
<path d="M1621 3304 c-18 -8 -202 -183 -419 -400 -213 -213 -398 -395 -411
-405 -13 -11 -22 -19 -19 -19 2 0 -45 -49 -104 -110 -60 -60 -110 -108 -112
-107 -3 1 -14 -11 -27 -28 -29 -39 -45 -55 -33 -35 4 8 -10 -3 -32 -25 -21
-22 -38 -43 -36 -47 1 -4 -7 -9 -18 -13 -11 -4 -18 -11 -15 -16 4 -5 -1 -9 -9
-9 -8 0 -22 -12 -30 -27 -8 -16 -15 -24 -16 -20 0 5 -15 -9 -34 -32 -18 -22
-36 -38 -39 -34 -3 3 -15 -10 -26 -28 -12 -19 -21 -31 -21 -26 0 4 -8 -1 -18
-10 -11 -10 -17 -21 -15 -25 2 -5 -1 -8 -6 -8 -17 0 -51 -33 -51 -49 0 -8 -3
-12 -6 -9 -7 8 -62 -45 -57 -54 2 -5 -2 -8 -10 -8 -13 0 -23 -13 -32 -40 -1
-3 -5 -12 -9 -21 -6 -13 -3 -60 4 -79 1 -3 2 -9 1 -13 -1 -4 6 -10 14 -13 8
-4 15 -13 15 -21 0 -7 13 -21 28 -30 15 -9 39 -31 52 -49 14 -18 30 -34 35
-34 6 -1 26 -21 45 -44 19 -24 38 -41 43 -39 4 2 7 0 7 -6 0 -14 351 -367 362
-363 4 1 7 -2 6 -7 -2 -4 70 -81 160 -171 89 -89 162 -167 162 -173 0 -6 2 -8
5 -5 7 7 65 -50 65 -63 0 -5 4 -9 8 -9 4 0 24 -16 43 -34 20 -19 48 -37 64
-40 35 -6 103 8 119 25 8 9 7 10 -4 5 -8 -4 -3 2 13 14 15 12 25 26 21 31 -3
5 -1 9 4 9 4 0 9 20 11 45 1 26 -2 45 -9 45 -5 0 -9 3 -9 8 4 21 -3 32 -18 32
-9 0 -14 3 -10 6 3 3 -204 215 -460 471 -344 344 -462 468 -452 474 8 5 11 9
8 9 -4 0 12 19 35 43 22 24 46 43 51 42 6 0 10 5 9 10 0 9 61 74 71 75 3 0 5
3 4 6 0 4 12 15 28 25 15 10 25 19 21 19 -3 0 8 15 25 33 18 18 37 33 42 33 6
-1 9 5 7 12 -1 6 5 12 14 12 8 0 14 3 12 8 -3 6 74 87 90 94 4 2 7 5 6 8 0 6
59 64 69 68 4 1 7 5 6 8 0 4 11 14 25 24 15 9 23 20 19 23 -3 4 1 7 11 7 9 0
16 3 14 8 -3 6 83 97 90 93 1 0 2 2 1 5 0 4 12 15 28 25 15 10 25 19 21 19 -3
0 8 15 25 33 18 18 37 33 42 33 6 -1 9 5 8 12 -2 6 4 12 13 12 8 0 14 3 12 8
-3 6 70 83 86 90 3 1 6 5 5 8 0 4 11 14 25 24 15 9 23 20 19 23 -3 4 1 7 11 7
9 0 16 3 14 8 -3 6 67 80 88 92 5 3 9 7 8 10 0 6 70 74 74 72 1 -1 2 1 1 4 0
4 11 14 25 24 15 9 23 20 19 23 -3 4 1 7 11 7 9 0 16 3 14 8 -3 6 74 87 90 94
4 2 6 6 5 10 -1 3 4 9 12 12 10 4 171 -150 490 -469 261 -262 475 -472 475
-468 0 5 4 1 9 -6 13 -20 98 -22 131 -5 14 8 21 14 17 14 -4 0 3 10 17 23 30
26 38 97 16 137 -8 14 -13 28 -12 33 1 4 -5 7 -14 7 -8 0 -12 5 -9 10 3 6 2
10 -3 10 -5 0 -92 82 -192 183 -101 100 -188 181 -194 179 -6 -2 -8 -1 -4 3 8
9 -181 201 -194 197 -4 -1 -8 3 -8 9 0 6 -25 34 -55 64 -30 29 -55 50 -55 47
0 -3 -11 9 -25 28 -14 19 -25 30 -25 25 0 -5 -11 6 -25 25 -14 19 -25 31 -25
28 0 -3 -18 12 -40 34 -22 22 -40 45 -40 51 0 6 -3 8 -6 5 -4 -5 -34 23 -80
75 -26 29 -77 69 -93 72 -9 2 -16 4 -16 6 0 8 -49 4 -74 -7z"/>
<path d="M1677 2834 c-2 -3 -17 -7 -33 -10 -36 -7 -1114 -1082 -1117 -1113 -1
-12 -4 -21 -8 -21 -8 0 -3 -39 10 -72 15 -40 1579 -1601 1597 -1594 8 3 14 2
14 -2 0 -4 14 -8 30 -8 17 -1 30 3 30 8 0 5 5 6 10 3 6 -4 23 7 40 23 16 16
32 27 35 24 3 -3 5 2 5 11 0 9 5 19 12 23 7 5 8 2 3 -7 -4 -8 12 6 36 31 24
25 42 48 41 53 -1 4 4 7 11 7 17 0 57 46 49 56 -4 4 -2 4 4 1 12 -7 46 28 36
38 -4 4 0 5 8 3 8 -2 14 3 12 10 -1 6 4 11 10 10 7 -2 12 3 10 10 -1 6 4 11
10 10 7 -2 12 3 10 10 -1 6 2 11 6 10 11 -4 78 63 74 74 -1 4 2 7 6 6 4 -2 64
52 131 120 68 67 128 122 132 122 5 0 8 3 7 8 -2 4 32 41 75 83 42 43 77 74
77 70 0 -3 10 9 21 27 12 17 28 32 36 32 8 0 13 3 11 8 -2 4 13 23 34 43 21
21 38 36 38 34 0 -1 24 21 53 49 29 28 51 54 49 59 -2 4 1 7 7 7 27 0 34 95
10 140 -10 19 -18 32 -19 28 0 -5 -9 1 -20 12 -12 12 -25 18 -30 15 -6 -4 -10
-2 -10 3 0 14 -69 5 -94 -12 -36 -24 -106 -94 -106 -106 0 -6 -3 -9 -7 -7 -10
5 -123 -110 -116 -117 4 -3 1 -6 -6 -6 -15 0 -161 -146 -153 -154 3 -3 0 -6
-6 -6 -15 0 -272 -256 -272 -270 0 -6 -3 -9 -7 -7 -10 5 -123 -110 -115 -117
3 -3 0 -6 -7 -6 -16 0 -111 -96 -111 -111 0 -7 -3 -10 -6 -6 -3 3 -18 -6 -32
-20 l-25 -25 -12 21 c-6 12 -14 18 -18 15 -4 -4 -7 0 -7 10 0 9 -3 15 -7 13
-5 -2 -24 15 -43 39 -19 23 -39 43 -45 44 -5 0 -23 19 -40 40 -16 21 -35 39
-42 40 -6 0 -15 9 -18 20 -3 11 -13 20 -21 20 -8 0 -12 5 -9 10 3 6 -2 10 -11
10 -10 0 -15 2 -12 5 7 8 -55 72 -64 67 -5 -2 -8 4 -8 13 0 9 -3 14 -7 12 -5
-2 -24 15 -43 39 -19 23 -39 43 -45 44 -5 0 -23 19 -40 40 -16 21 -34 39 -40
40 -5 0 -19 13 -30 29 -10 16 -23 27 -27 25 -4 -3 -8 2 -8 11 0 9 -3 14 -7 12
-5 -2 -24 15 -43 39 -19 23 -38 43 -42 43 -12 1 -56 50 -50 55 3 3 -2 6 -12 6
-9 0 -16 3 -14 8 5 9 -59 71 -67 64 -3 -3 -5 2 -5 12 0 9 -3 15 -7 13 -5 -2
-24 15 -43 39 -19 23 -39 43 -45 43 -5 1 -19 14 -30 30 -10 16 -23 27 -27 25
-4 -3 -8 2 -8 11 0 9 -3 14 -7 12 -5 -2 -24 15 -43 39 -19 23 -39 43 -45 44
-5 0 -23 19 -40 40 -16 21 -34 39 -40 40 -5 0 -19 13 -30 29 -10 16 -23 27
-27 25 -4 -3 -8 2 -8 11 0 9 -4 13 -10 10 -5 -3 -10 -3 -10 2 -1 4 -15 24 -32
43 -17 19 -27 29 -23 21 5 -9 4 -12 -3 -7 -7 4 -12 13 -12 21 0 7 215 229 478
492 309 308 482 489 489 509 6 17 8 44 5 60 -5 29 -42 97 -42 79 0 -5 -4 -5
-8 1 -8 14 -78 44 -85 38z"/>
<path d="M1946 1933 c1 -318 2 -582 3 -586 0 -5 51 43 112 105 61 62 192 195
291 294 l180 182 -291 291 c-161 160 -293 291 -294 291 -1 0 -1 -260 -1 -577z"/>
</g>
</svg>
